<svg xmlns="http://www.w3.org/2000/svg" viewBox="0 0 360 56" fill="none" ><defs>
<filter id="grain" x="0" y="0" width="100%" height="100%"><feTurbulence type="fractalNoise" baseFrequency=".75" numOctaves="3" seed="4" stitchTiles="stitch"/><feColorMatrix values="0 0 0 0 .38  0 0 0 0 .29  0 0 0 0 .2  0 0 0 .16 0"/><feComposite in2="SourceGraphic" operator="in"/></filter>
<filter id="lift" x="-20%" y="-20%" width="140%" height="140%"><feDropShadow dx="1.5" dy="3" stdDeviation="2.4" flood-color="#4A3B2A" flood-opacity=".2"/></filter>
<filter id="liftS" x="-20%" y="-20%" width="140%" height="140%"><feDropShadow dx=".8" dy="1.4" stdDeviation="1.1" flood-color="#4A3B2A" flood-opacity=".24"/></filter>
<radialGradient id="pearl" cx=".36" cy=".32" r=".75"><stop stop-color="#FFFFFF"/><stop offset=".45" stop-color="#F4EFE6"/><stop offset=".85" stop-color="#D3C9B8"/><stop offset="1" stop-color="#B9AE9A"/></radialGradient>
<linearGradient id="satin" x1="0" y1="0" x2="1" y2="1"><stop stop-color="#C3EAE2"/><stop offset=".38" stop-color="#7DC6BA"/><stop offset=".72" stop-color="#4FA39A"/><stop offset="1" stop-color="#3B8C84"/></linearGradient>
<linearGradient id="satinR" x1="1" y1="0" x2="0" y2="1"><stop stop-color="#C3EAE2"/><stop offset=".38" stop-color="#7DC6BA"/><stop offset=".72" stop-color="#4FA39A"/><stop offset="1" stop-color="#3B8C84"/></linearGradient>
<linearGradient id="kraft" x1="0" y1="0" x2="1" y2="1"><stop stop-color="#D8C5A2"/><stop offset="1" stop-color="#C2A97F"/></linearGradient>
<linearGradient id="ivory" x1="0" y1="0" x2="1" y2="1"><stop stop-color="#FCFAF3"/><stop offset="1" stop-color="#EEE6D6"/></linearGradient>
<pattern id="lace" width="18" height="24" patternUnits="userSpaceOnUse"><path d="M0 0h18v14c-3 0-3 6-9 6s-6-6-9-6Z" fill="#FBF8F1" fill-opacity=".93"/><path d="M0 14c3 0 3 6 9 6s6-6 9-6" fill="none" stroke="#D8CDB9" stroke-width=".8"/><circle cx="9" cy="6" r="2.6" fill="none" stroke="#D3C7B2" stroke-width=".8"/><circle cx="9" cy="6" r=".9" fill="#D3C7B2"/><circle cx="0" cy="10" r="1.3" fill="#E4DCCB"/><circle cx="18" cy="10" r="1.3" fill="#E4DCCB"/><circle cx="9" cy="15.5" r="1.1" fill="#E4DCCB"/><path d="M3 2.5h12" stroke="#DED4C2" stroke-width=".6" stroke-dasharray="1.2 1.4"/></pattern>
<pattern id="hatch" width="4" height="4" patternUnits="userSpaceOnUse" patternTransform="rotate(35)"><path d="M0 0v4" stroke="#7B7468" stroke-width=".7" stroke-opacity=".55"/></pattern>
<pattern id="tapeStripe" width="9" height="9" patternUnits="userSpaceOnUse" patternTransform="rotate(45)"><rect width="4" height="9" fill="#FFFFFF" fill-opacity=".28"/></pattern>
</defs>
<g filter="url(#liftS)"><circle cx="0.0" cy="26.0" r="2.6" fill="url(#pearl)" stroke="#B8AD99" stroke-width=".35"/><circle cx="5.5" cy="27.2" r="2.6" fill="url(#pearl)" stroke="#B8AD99" stroke-width=".35"/><circle cx="10.9" cy="28.4" r="2.6" fill="url(#pearl)" stroke="#B8AD99" stroke-width=".35"/><circle cx="16.4" cy="29.5" r="2.6" fill="url(#pearl)" stroke="#B8AD99" stroke-width=".35"/><circle cx="21.9" cy="30.5" r="2.6" fill="url(#pearl)" stroke="#B8AD99" stroke-width=".35"/><circle cx="27.4" cy="31.4" r="2.6" fill="url(#pearl)" stroke="#B8AD99" stroke-width=".35"/><circle cx="32.9" cy="32.3" r="2.6" fill="url(#pearl)" stroke="#B8AD99" stroke-width=".35"/><circle cx="38.5" cy="33.1" r="2.6" fill="url(#pearl)" stroke="#B8AD99" stroke-width=".35"/><circle cx="44.0" cy="33.8" r="2.6" fill="url(#pearl)" stroke="#B8AD99" stroke-width=".35"/><circle cx="49.6" cy="34.4" r="2.6" fill="url(#pearl)" stroke="#B8AD99" stroke-width=".35"/><circle cx="55.1" cy="35.0" r="2.6" fill="url(#pearl)" stroke="#B8AD99" stroke-width=".35"/><circle cx="60.7" cy="35.5" r="2.6" fill="url(#pearl)" stroke="#B8AD99" stroke-width=".35"/><circle cx="66.3" cy="35.9" r="2.6" fill="url(#pearl)" stroke="#B8AD99" stroke-width=".35"/><circle cx="71.9" cy="36.2" r="2.6" fill="url(#pearl)" stroke="#B8AD99" stroke-width=".35"/><circle cx="77.4" cy="36.5" r="2.6" fill="url(#pearl)" stroke="#B8AD99" stroke-width=".35"/><circle cx="83.0" cy="36.6" r="2.6" fill="url(#pearl)" stroke="#B8AD99" stroke-width=".35"/><circle cx="88.6" cy="36.7" r="2.6" fill="url(#pearl)" stroke="#B8AD99" stroke-width=".35"/><circle cx="94.2" cy="36.8" r="2.6" fill="url(#pearl)" stroke="#B8AD99" stroke-width=".35"/><circle cx="99.8" cy="36.7" r="2.6" fill="url(#pearl)" stroke="#B8AD99" stroke-width=".35"/><circle cx="105.4" cy="36.6" r="2.6" fill="url(#pearl)" stroke="#B8AD99" stroke-width=".35"/><circle cx="111.0" cy="36.4" r="2.6" fill="url(#pearl)" stroke="#B8AD99" stroke-width=".35"/><circle cx="116.6" cy="36.1" r="2.6" fill="url(#pearl)" stroke="#B8AD99" stroke-width=".35"/><circle cx="122.1" cy="35.8" r="2.6" fill="url(#pearl)" stroke="#B8AD99" stroke-width=".35"/><circle cx="127.7" cy="35.4" r="2.6" fill="url(#pearl)" stroke="#B8AD99" stroke-width=".35"/><circle cx="133.3" cy="34.9" r="2.6" fill="url(#pearl)" stroke="#B8AD99" stroke-width=".35"/><circle cx="138.8" cy="34.3" r="2.6" fill="url(#pearl)" stroke="#B8AD99" stroke-width=".35"/><circle cx="144.4" cy="33.7" r="2.6" fill="url(#pearl)" stroke="#B8AD99" stroke-width=".35"/><circle cx="149.9" cy="33.0" r="2.6" fill="url(#pearl)" stroke="#B8AD99" stroke-width=".35"/><circle cx="155.5" cy="32.2" r="2.6" fill="url(#pearl)" stroke="#B8AD99" stroke-width=".35"/><circle cx="161.0" cy="31.4" r="2.6" fill="url(#pearl)" stroke="#B8AD99" stroke-width=".35"/><circle cx="166.5" cy="30.5" r="2.6" fill="url(#pearl)" stroke="#B8AD99" stroke-width=".35"/><circle cx="172.0" cy="29.5" r="2.6" fill="url(#pearl)" stroke="#B8AD99" stroke-width=".35"/><circle cx="177.5" cy="28.5" r="2.6" fill="url(#pearl)" stroke="#B8AD99" stroke-width=".35"/></g>
<g filter="url(#liftS)"><circle cx="180.0" cy="28.0" r="2.6" fill="url(#pearl)" stroke="#B8AD99" stroke-width=".35"/><circle cx="185.5" cy="29.1" r="2.6" fill="url(#pearl)" stroke="#B8AD99" stroke-width=".35"/><circle cx="191.0" cy="30.1" r="2.6" fill="url(#pearl)" stroke="#B8AD99" stroke-width=".35"/><circle cx="196.5" cy="31.0" r="2.6" fill="url(#pearl)" stroke="#B8AD99" stroke-width=".35"/><circle cx="202.0" cy="31.9" r="2.6" fill="url(#pearl)" stroke="#B8AD99" stroke-width=".35"/><circle cx="207.6" cy="32.7" r="2.6" fill="url(#pearl)" stroke="#B8AD99" stroke-width=".35"/><circle cx="213.1" cy="33.4" r="2.6" fill="url(#pearl)" stroke="#B8AD99" stroke-width=".35"/><circle cx="218.6" cy="34.0" r="2.6" fill="url(#pearl)" stroke="#B8AD99" stroke-width=".35"/><circle cx="224.2" cy="34.6" r="2.6" fill="url(#pearl)" stroke="#B8AD99" stroke-width=".35"/><circle cx="229.8" cy="35.2" r="2.6" fill="url(#pearl)" stroke="#B8AD99" stroke-width=".35"/><circle cx="235.3" cy="35.6" r="2.6" fill="url(#pearl)" stroke="#B8AD99" stroke-width=".35"/><circle cx="240.9" cy="36.0" r="2.6" fill="url(#pearl)" stroke="#B8AD99" stroke-width=".35"/><circle cx="246.5" cy="36.3" r="2.6" fill="url(#pearl)" stroke="#B8AD99" stroke-width=".35"/><circle cx="252.1" cy="36.5" r="2.6" fill="url(#pearl)" stroke="#B8AD99" stroke-width=".35"/><circle cx="257.7" cy="36.7" r="2.6" fill="url(#pearl)" stroke="#B8AD99" stroke-width=".35"/><circle cx="263.3" cy="36.7" r="2.6" fill="url(#pearl)" stroke="#B8AD99" stroke-width=".35"/><circle cx="268.9" cy="36.8" r="2.6" fill="url(#pearl)" stroke="#B8AD99" stroke-width=".35"/><circle cx="274.4" cy="36.7" r="2.6" fill="url(#pearl)" stroke="#B8AD99" stroke-width=".35"/><circle cx="280.0" cy="36.6" r="2.6" fill="url(#pearl)" stroke="#B8AD99" stroke-width=".35"/><circle cx="285.6" cy="36.3" r="2.6" fill="url(#pearl)" stroke="#B8AD99" stroke-width=".35"/><circle cx="291.2" cy="36.1" r="2.6" fill="url(#pearl)" stroke="#B8AD99" stroke-width=".35"/><circle cx="296.8" cy="35.7" r="2.6" fill="url(#pearl)" stroke="#B8AD99" stroke-width=".35"/><circle cx="302.4" cy="35.3" r="2.6" fill="url(#pearl)" stroke="#B8AD99" stroke-width=".35"/><circle cx="307.9" cy="34.8" r="2.6" fill="url(#pearl)" stroke="#B8AD99" stroke-width=".35"/><circle cx="313.5" cy="34.2" r="2.6" fill="url(#pearl)" stroke="#B8AD99" stroke-width=".35"/><circle cx="319.0" cy="33.5" r="2.6" fill="url(#pearl)" stroke="#B8AD99" stroke-width=".35"/><circle cx="324.6" cy="32.8" r="2.6" fill="url(#pearl)" stroke="#B8AD99" stroke-width=".35"/><circle cx="330.1" cy="32.0" r="2.6" fill="url(#pearl)" stroke="#B8AD99" stroke-width=".35"/><circle cx="335.6" cy="31.1" r="2.6" fill="url(#pearl)" stroke="#B8AD99" stroke-width=".35"/><circle cx="341.1" cy="30.2" r="2.6" fill="url(#pearl)" stroke="#B8AD99" stroke-width=".35"/><circle cx="346.6" cy="29.2" r="2.6" fill="url(#pearl)" stroke="#B8AD99" stroke-width=".35"/><circle cx="352.1" cy="28.1" r="2.6" fill="url(#pearl)" stroke="#B8AD99" stroke-width=".35"/><circle cx="357.6" cy="27.0" r="2.6" fill="url(#pearl)" stroke="#B8AD99" stroke-width=".35"/></g>
<path d="M0 22C60 35 120 35 180 24S300 35 360 22" stroke="#8E7A55" stroke-opacity=".45" stroke-width=".7"/>
<g transform="translate(132 34) scale(1 1)"><path d="M0 0C-8-9-20-9-24-3-16 2-7 3 0 0Z" fill="#A3AE84" stroke="#5E6A45" stroke-width=".5"/><path d="M-4 1C-9 8-18 10-22 6-17 1-10-1-4 1Z" fill="#7F8B5E" stroke="#5E6A45" stroke-width=".5"/></g>
<g transform="translate(228 34) scale(-1 1)"><path d="M0 0C-8-9-20-9-24-3-16 2-7 3 0 0Z" fill="#A3AE84" stroke="#5E6A45" stroke-width=".5"/><path d="M-4 1C-9 8-18 10-22 6-17 1-10-1-4 1Z" fill="#7F8B5E" stroke="#5E6A45" stroke-width=".5"/></g>
<g transform="translate(180 22) rotate(0) scale(0.44)" filter="url(#lift)" stroke-linejoin="round">
<path d="M-4 4C-10 20-17 34-27 47l11-2 3 11C-5 40-1 22 2 6Z" fill="url(#satin)" stroke="#2D6E69" stroke-width=".9"/>
<path d="M4 4C11 19 19 31 30 42l-11 0-1 11C10 37 4 21-1 6Z" fill="url(#satinR)" stroke="#2D6E69" stroke-width=".9"/>
<path d="M-2-1C-12-20-38-31-45-15-50-2-30 9-2 3Z" fill="url(#satin)" stroke="#2D6E69" stroke-width=".9"/>
<path d="M2-1C13-20 39-29 45-12 49 1 28 10 2 3Z" fill="url(#satinR)" stroke="#2D6E69" stroke-width=".9"/>
<path d="M-4-1C-15-10-30-14-37-9-30-5-17-2-4 1Z" fill="#3F918A" fill-opacity=".45"/>
<path d="M4-1C15-10 30-13 37-7 30-4 17-1 4 1Z" fill="#3F918A" fill-opacity=".45"/>
<path d="M-40-14C-33-24-20-22-11-14M14-14C24-22 36-21 41-11M-9 12C-13 24-18 33-22 41M9 12C14 22 20 30 25 37" stroke="#FFFFFF" stroke-opacity=".55" stroke-width="1.4" stroke-linecap="round"/>
<ellipse cx="0" cy="1" rx="7.5" ry="8.5" fill="#74BFB4" stroke="#2D6E69" stroke-width=".9"/>
<path d="M-4-3C-1-6 3-6 5-2" stroke="#FFFFFF" stroke-opacity=".6" stroke-width="1.2" stroke-linecap="round"/>
</g>
<circle cx="70" cy="38" r="4.2" fill="url(#pearl)" stroke="#B8AD99" stroke-width=".35"/><path d="M70 42v5" stroke="#8E7A55" stroke-opacity=".5" stroke-width=".6"/><circle cx="70" cy="49" r="2.4" fill="url(#pearl)"/>
<circle cx="290" cy="38" r="4.2" fill="url(#pearl)" stroke="#B8AD99" stroke-width=".35"/><path d="M290 42v5" stroke="#8E7A55" stroke-opacity=".5" stroke-width=".6"/><circle cx="290" cy="49" r="2.4" fill="url(#pearl)"/>
</svg>
