<svg xmlns="http://www.w3.org/2000/svg" viewBox="0 0 170 170" fill="none" ><defs>
<filter id="grain" x="0" y="0" width="100%" height="100%"><feTurbulence type="fractalNoise" baseFrequency=".75" numOctaves="3" seed="4" stitchTiles="stitch"/><feColorMatrix values="0 0 0 0 .38  0 0 0 0 .29  0 0 0 0 .2  0 0 0 .16 0"/><feComposite in2="SourceGraphic" operator="in"/></filter>
<filter id="lift" x="-20%" y="-20%" width="140%" height="140%"><feDropShadow dx="1.5" dy="3" stdDeviation="2.4" flood-color="#4A3B2A" flood-opacity=".2"/></filter>
<filter id="liftS" x="-20%" y="-20%" width="140%" height="140%"><feDropShadow dx=".8" dy="1.4" stdDeviation="1.1" flood-color="#4A3B2A" flood-opacity=".24"/></filter>
<radialGradient id="pearl" cx=".36" cy=".32" r=".75"><stop stop-color="#FFFFFF"/><stop offset=".45" stop-color="#F4EFE6"/><stop offset=".85" stop-color="#D3C9B8"/><stop offset="1" stop-color="#B9AE9A"/></radialGradient>
<linearGradient id="satin" x1="0" y1="0" x2="1" y2="1"><stop stop-color="#C3EAE2"/><stop offset=".38" stop-color="#7DC6BA"/><stop offset=".72" stop-color="#4FA39A"/><stop offset="1" stop-color="#3B8C84"/></linearGradient>
<linearGradient id="satinR" x1="1" y1="0" x2="0" y2="1"><stop stop-color="#C3EAE2"/><stop offset=".38" stop-color="#7DC6BA"/><stop offset=".72" stop-color="#4FA39A"/><stop offset="1" stop-color="#3B8C84"/></linearGradient>
<linearGradient id="kraft" x1="0" y1="0" x2="1" y2="1"><stop stop-color="#D8C5A2"/><stop offset="1" stop-color="#C2A97F"/></linearGradient>
<linearGradient id="ivory" x1="0" y1="0" x2="1" y2="1"><stop stop-color="#FCFAF3"/><stop offset="1" stop-color="#EEE6D6"/></linearGradient>
<pattern id="lace" width="18" height="24" patternUnits="userSpaceOnUse"><path d="M0 0h18v14c-3 0-3 6-9 6s-6-6-9-6Z" fill="#FBF8F1" fill-opacity=".93"/><path d="M0 14c3 0 3 6 9 6s6-6 9-6" fill="none" stroke="#D8CDB9" stroke-width=".8"/><circle cx="9" cy="6" r="2.6" fill="none" stroke="#D3C7B2" stroke-width=".8"/><circle cx="9" cy="6" r=".9" fill="#D3C7B2"/><circle cx="0" cy="10" r="1.3" fill="#E4DCCB"/><circle cx="18" cy="10" r="1.3" fill="#E4DCCB"/><circle cx="9" cy="15.5" r="1.1" fill="#E4DCCB"/><path d="M3 2.5h12" stroke="#DED4C2" stroke-width=".6" stroke-dasharray="1.2 1.4"/></pattern>
<pattern id="hatch" width="4" height="4" patternUnits="userSpaceOnUse" patternTransform="rotate(35)"><path d="M0 0v4" stroke="#7B7468" stroke-width=".7" stroke-opacity=".55"/></pattern>
<pattern id="tapeStripe" width="9" height="9" patternUnits="userSpaceOnUse" patternTransform="rotate(45)"><rect width="4" height="9" fill="#FFFFFF" fill-opacity=".28"/></pattern>
</defs>
<g filter="url(#liftS)"><path d="M0 0H100A100 100 0 0 1 0 100Z" fill="#FBF8F1" fill-opacity=".75"/><circle cx="100.0" cy="0.0" r="6" fill="#FBF8F1" fill-opacity=".85" stroke="#D3C7B2" stroke-width=".6"/><circle cx="98.5" cy="17.4" r="6" fill="#FBF8F1" fill-opacity=".85" stroke="#D3C7B2" stroke-width=".6"/><circle cx="94.0" cy="34.2" r="6" fill="#FBF8F1" fill-opacity=".85" stroke="#D3C7B2" stroke-width=".6"/><circle cx="86.6" cy="50.0" r="6" fill="#FBF8F1" fill-opacity=".85" stroke="#D3C7B2" stroke-width=".6"/><circle cx="76.6" cy="64.3" r="6" fill="#FBF8F1" fill-opacity=".85" stroke="#D3C7B2" stroke-width=".6"/><circle cx="64.3" cy="76.6" r="6" fill="#FBF8F1" fill-opacity=".85" stroke="#D3C7B2" stroke-width=".6"/><circle cx="50.0" cy="86.6" r="6" fill="#FBF8F1" fill-opacity=".85" stroke="#D3C7B2" stroke-width=".6"/><circle cx="34.2" cy="94.0" r="6" fill="#FBF8F1" fill-opacity=".85" stroke="#D3C7B2" stroke-width=".6"/><circle cx="17.4" cy="98.5" r="6" fill="#FBF8F1" fill-opacity=".85" stroke="#D3C7B2" stroke-width=".6"/><circle cx="0.0" cy="100.0" r="6" fill="#FBF8F1" fill-opacity=".85" stroke="#D3C7B2" stroke-width=".6"/><path d="M35 0A35 35 0 0 1 0 35" stroke="#D3C7B2" stroke-width=".7" stroke-dasharray="2 3"/><path d="M62 0A62 62 0 0 1 0 62" stroke="#D3C7B2" stroke-width=".7" stroke-dasharray="2 3"/><path d="M86 0A86 86 0 0 1 0 86" stroke="#D3C7B2" stroke-width=".7" stroke-dasharray="2 3"/></g>
<g filter="url(#liftS)"><path d="M6 6Q69.9 25.8 120 70" stroke="#5E6A45" stroke-width="1.3" stroke-linecap="round"/><path d="M0 0C3.3 -3.1 7.7 -2.7 9.6 0 7.7 2.7 3.3 3.1 0 0Z" transform="translate(12.4 8.0) rotate(-40)" fill="#7F8B5E" stroke="#5E6A45" stroke-width=".5"/><path d="M0 0C3.3 -3.1 7.7 -2.7 9.6 0 7.7 2.7 3.3 3.1 0 0Z" transform="translate(12.4 8.0) rotate(76)" fill="#7F8B5E" stroke="#5E6A45" stroke-width=".5"/><path d="M0 0C3.0 -2.8 7.0 -2.4 8.7 0 7.0 2.4 3.0 2.8 0 0Z" transform="translate(24.8 12.5) rotate(-37)" fill="#7F8B5E" stroke="#5E6A45" stroke-width=".5"/><path d="M0 0C3.0 -2.8 7.0 -2.4 8.7 0 7.0 2.4 3.0 2.8 0 0Z" transform="translate(24.8 12.5) rotate(79)" fill="#7F8B5E" stroke="#5E6A45" stroke-width=".5"/><path d="M0 0C2.7 -2.5 6.3 -2.2 7.8 0 6.3 2.2 2.7 2.5 0 0Z" transform="translate(37.1 17.4) rotate(-35)" fill="#7F8B5E" stroke="#5E6A45" stroke-width=".5"/><path d="M0 0C2.7 -2.5 6.3 -2.2 7.8 0 6.3 2.2 2.7 2.5 0 0Z" transform="translate(37.1 17.4) rotate(81)" fill="#7F8B5E" stroke="#5E6A45" stroke-width=".5"/><path d="M0 0C2.4 -2.2 5.6 -1.9 7.0 0 5.6 1.9 2.4 2.2 0 0Z" transform="translate(49.0 22.8) rotate(-32)" fill="#A3AE84" stroke="#5E6A45" stroke-width=".5"/><path d="M0 0C2.4 -2.2 5.6 -1.9 7.0 0 5.6 1.9 2.4 2.2 0 0Z" transform="translate(49.0 22.8) rotate(84)" fill="#7F8B5E" stroke="#5E6A45" stroke-width=".5"/><path d="M0 0C2.1 -1.9 4.9 -1.7 6.1 0 4.9 1.7 2.1 1.9 0 0Z" transform="translate(60.7 28.8) rotate(-30)" fill="#7F8B5E" stroke="#5E6A45" stroke-width=".5"/><path d="M0 0C2.1 -1.9 4.9 -1.7 6.1 0 4.9 1.7 2.1 1.9 0 0Z" transform="translate(60.7 28.8) rotate(86)" fill="#7F8B5E" stroke="#5E6A45" stroke-width=".5"/><path d="M0 0C1.8 -1.7 4.2 -1.5 5.2 0 4.2 1.5 1.8 1.7 0 0Z" transform="translate(72.1 35.2) rotate(-27)" fill="#7F8B5E" stroke="#5E6A45" stroke-width=".5"/><path d="M0 0C1.8 -1.7 4.2 -1.5 5.2 0 4.2 1.5 1.8 1.7 0 0Z" transform="translate(72.1 35.2) rotate(89)" fill="#A3AE84" stroke="#5E6A45" stroke-width=".5"/><path d="M0 0C1.5 -1.4 3.5 -1.2 4.3 0 3.5 1.2 1.5 1.4 0 0Z" transform="translate(83.2 42.0) rotate(-25)" fill="#7F8B5E" stroke="#5E6A45" stroke-width=".5"/><path d="M0 0C1.5 -1.4 3.5 -1.2 4.3 0 3.5 1.2 1.5 1.4 0 0Z" transform="translate(83.2 42.0) rotate(91)" fill="#A3AE84" stroke="#5E6A45" stroke-width=".5"/><path d="M0 0C1.2 -1.1 2.8 -1.0 3.5 0 2.8 1.0 1.2 1.1 0 0Z" transform="translate(94.1 49.4) rotate(-23)" fill="#7F8B5E" stroke="#5E6A45" stroke-width=".5"/><path d="M0 0C1.2 -1.1 2.8 -1.0 3.5 0 2.8 1.0 1.2 1.1 0 0Z" transform="translate(94.1 49.4) rotate(93)" fill="#7F8B5E" stroke="#5E6A45" stroke-width=".5"/><path d="M0 0C0.9 -0.8 2.1 -0.7 2.6 0 2.1 0.7 0.9 0.8 0 0Z" transform="translate(104.6 57.3) rotate(-20)" fill="#A3AE84" stroke="#5E6A45" stroke-width=".5"/><path d="M0 0C0.9 -0.8 2.1 -0.7 2.6 0 2.1 0.7 0.9 0.8 0 0Z" transform="translate(104.6 57.3) rotate(96)" fill="#A3AE84" stroke="#5E6A45" stroke-width=".5"/><path d="M0 0C0.6 -0.6 1.4 -0.5 1.7 0 1.4 0.5 0.6 0.6 0 0Z" transform="translate(115.0 65.6) rotate(-18)" fill="#A3AE84" stroke="#5E6A45" stroke-width=".5"/><path d="M0 0C0.6 -0.6 1.4 -0.5 1.7 0 1.4 0.5 0.6 0.6 0 0Z" transform="translate(115.0 65.6) rotate(98)" fill="#7F8B5E" stroke="#5E6A45" stroke-width=".5"/></g>
<g filter="url(#liftS)"><path d="M6 6Q22.3 73.9 64 130" stroke="#5E6A45" stroke-width="1.3" stroke-linecap="round"/><path d="M0 0C3.0 -2.7 6.9 -2.4 8.6 0 6.9 2.4 3.0 2.7 0 0Z" transform="translate(7.9 13.5) rotate(17)" fill="#7F8B5E" stroke="#5E6A45" stroke-width=".5"/><path d="M0 0C3.0 -2.7 6.9 -2.4 8.6 0 6.9 2.4 3.0 2.7 0 0Z" transform="translate(7.9 13.5) rotate(133)" fill="#A3AE84" stroke="#5E6A45" stroke-width=".5"/><path d="M0 0C2.7 -2.5 6.2 -2.2 7.7 0 6.2 2.2 2.7 2.5 0 0Z" transform="translate(12.1 28.3) rotate(15)" fill="#7F8B5E" stroke="#5E6A45" stroke-width=".5"/><path d="M0 0C2.7 -2.5 6.2 -2.2 7.7 0 6.2 2.2 2.7 2.5 0 0Z" transform="translate(12.1 28.3) rotate(131)" fill="#A3AE84" stroke="#5E6A45" stroke-width=".5"/><path d="M0 0C2.4 -2.2 5.5 -1.9 6.8 0 5.5 1.9 2.4 2.2 0 0Z" transform="translate(17.0 42.8) rotate(12)" fill="#7F8B5E" stroke="#5E6A45" stroke-width=".5"/><path d="M0 0C2.4 -2.2 5.5 -1.9 6.8 0 5.5 1.9 2.4 2.2 0 0Z" transform="translate(17.0 42.8) rotate(128)" fill="#A3AE84" stroke="#5E6A45" stroke-width=".5"/><path d="M0 0C2.1 -1.9 4.8 -1.7 6.0 0 4.8 1.7 2.1 1.9 0 0Z" transform="translate(22.5 57.0) rotate(10)" fill="#A3AE84" stroke="#5E6A45" stroke-width=".5"/><path d="M0 0C2.1 -1.9 4.8 -1.7 6.0 0 4.8 1.7 2.1 1.9 0 0Z" transform="translate(22.5 57.0) rotate(126)" fill="#7F8B5E" stroke="#5E6A45" stroke-width=".5"/><path d="M0 0C1.8 -1.6 4.1 -1.4 5.1 0 4.1 1.4 1.8 1.6 0 0Z" transform="translate(28.7 71.0) rotate(7)" fill="#A3AE84" stroke="#5E6A45" stroke-width=".5"/><path d="M0 0C1.8 -1.6 4.1 -1.4 5.1 0 4.1 1.4 1.8 1.6 0 0Z" transform="translate(28.7 71.0) rotate(123)" fill="#A3AE84" stroke="#5E6A45" stroke-width=".5"/><path d="M0 0C1.5 -1.3 3.4 -1.2 4.2 0 3.4 1.2 1.5 1.3 0 0Z" transform="translate(35.4 84.6) rotate(4)" fill="#7F8B5E" stroke="#5E6A45" stroke-width=".5"/><path d="M0 0C1.5 -1.3 3.4 -1.2 4.2 0 3.4 1.2 1.5 1.3 0 0Z" transform="translate(35.4 84.6) rotate(120)" fill="#7F8B5E" stroke="#5E6A45" stroke-width=".5"/><path d="M0 0C1.2 -1.1 2.7 -0.9 3.3 0 2.7 0.9 1.2 1.1 0 0Z" transform="translate(42.8 97.9) rotate(2)" fill="#A3AE84" stroke="#5E6A45" stroke-width=".5"/><path d="M0 0C1.2 -1.1 2.7 -0.9 3.3 0 2.7 0.9 1.2 1.1 0 0Z" transform="translate(42.8 97.9) rotate(118)" fill="#7F8B5E" stroke="#5E6A45" stroke-width=".5"/><path d="M0 0C0.9 -0.8 2.0 -0.7 2.5 0 2.0 0.7 0.9 0.8 0 0Z" transform="translate(50.8 111.0) rotate(-1)" fill="#7F8B5E" stroke="#5E6A45" stroke-width=".5"/><path d="M0 0C0.9 -0.8 2.0 -0.7 2.5 0 2.0 0.7 0.9 0.8 0 0Z" transform="translate(50.8 111.0) rotate(115)" fill="#7F8B5E" stroke="#5E6A45" stroke-width=".5"/><path d="M0 0C0.6 -0.5 1.3 -0.5 1.6 0 1.3 0.5 0.6 0.5 0 0Z" transform="translate(59.4 123.7) rotate(-3)" fill="#A3AE84" stroke="#5E6A45" stroke-width=".5"/><path d="M0 0C0.6 -0.5 1.3 -0.5 1.6 0 1.3 0.5 0.6 0.5 0 0Z" transform="translate(59.4 123.7) rotate(113)" fill="#7F8B5E" stroke="#5E6A45" stroke-width=".5"/></g>
<g filter="url(#liftS)"><circle cx="4.0" cy="26.0" r="2.5" fill="url(#pearl)" stroke="#B8AD99" stroke-width=".35"/><circle cx="7.1" cy="30.4" r="2.5" fill="url(#pearl)" stroke="#B8AD99" stroke-width=".35"/><circle cx="10.3" cy="34.7" r="2.5" fill="url(#pearl)" stroke="#B8AD99" stroke-width=".35"/><circle cx="13.7" cy="38.9" r="2.5" fill="url(#pearl)" stroke="#B8AD99" stroke-width=".35"/><circle cx="17.4" cy="42.8" r="2.5" fill="url(#pearl)" stroke="#B8AD99" stroke-width=".35"/><circle cx="21.3" cy="46.5" r="2.5" fill="url(#pearl)" stroke="#B8AD99" stroke-width=".35"/><circle cx="25.4" cy="49.9" r="2.5" fill="url(#pearl)" stroke="#B8AD99" stroke-width=".35"/><circle cx="29.9" cy="52.9" r="2.5" fill="url(#pearl)" stroke="#B8AD99" stroke-width=".35"/><circle cx="34.5" cy="55.6" r="2.5" fill="url(#pearl)" stroke="#B8AD99" stroke-width=".35"/><circle cx="39.3" cy="58.0" r="2.5" fill="url(#pearl)" stroke="#B8AD99" stroke-width=".35"/><circle cx="44.3" cy="60.1" r="2.5" fill="url(#pearl)" stroke="#B8AD99" stroke-width=".35"/><circle cx="49.2" cy="62.2" r="2.5" fill="url(#pearl)" stroke="#B8AD99" stroke-width=".35"/><circle cx="54.2" cy="64.3" r="2.5" fill="url(#pearl)" stroke="#B8AD99" stroke-width=".35"/><circle cx="59.0" cy="66.6" r="2.5" fill="url(#pearl)" stroke="#B8AD99" stroke-width=".35"/><circle cx="63.7" cy="69.2" r="2.5" fill="url(#pearl)" stroke="#B8AD99" stroke-width=".35"/><circle cx="68.3" cy="72.1" r="2.5" fill="url(#pearl)" stroke="#B8AD99" stroke-width=".35"/><circle cx="72.6" cy="75.2" r="2.5" fill="url(#pearl)" stroke="#B8AD99" stroke-width=".35"/><circle cx="76.8" cy="78.6" r="2.5" fill="url(#pearl)" stroke="#B8AD99" stroke-width=".35"/><circle cx="80.8" cy="82.3" r="2.5" fill="url(#pearl)" stroke="#B8AD99" stroke-width=".35"/><circle cx="84.5" cy="86.1" r="2.5" fill="url(#pearl)" stroke="#B8AD99" stroke-width=".35"/><circle cx="88.2" cy="90.0" r="2.5" fill="url(#pearl)" stroke="#B8AD99" stroke-width=".35"/><circle cx="91.7" cy="94.1" r="2.5" fill="url(#pearl)" stroke="#B8AD99" stroke-width=".35"/><circle cx="95.0" cy="98.3" r="2.5" fill="url(#pearl)" stroke="#B8AD99" stroke-width=".35"/><circle cx="98.3" cy="102.6" r="2.5" fill="url(#pearl)" stroke="#B8AD99" stroke-width=".35"/><circle cx="101.4" cy="107.0" r="2.5" fill="url(#pearl)" stroke="#B8AD99" stroke-width=".35"/><circle cx="104.4" cy="111.4" r="2.5" fill="url(#pearl)" stroke="#B8AD99" stroke-width=".35"/><circle cx="107.4" cy="115.9" r="2.5" fill="url(#pearl)" stroke="#B8AD99" stroke-width=".35"/></g>
<g transform="translate(28 28) rotate(-30) scale(0.95)" filter="url(#liftS)">
<path d="M0-15C11-16 17-7 15 3 13 13 3 16-5 14-14 12-17 2-14-6-11-13-6-15 0-15Z" fill="#D9BCAA" stroke="#8E6556" stroke-width=".7"/>
<path d="M-11-4C-9-12 2-14 9-9 14-5 12 5 6 9-1 13-10 9-11-4Z" fill="#B8907F" stroke="#8E6556" stroke-width=".6"/>
<path d="M-6-3C-4-8 3-9 6-5 8-1 5 4 1 5-3 6-7 2-6-3Z" fill="#8E6556" fill-opacity=".55"/>
<path d="M-3-2C0-5 4-3 3 0S-1 3-2 1" stroke="#6E4A3F" stroke-width=".8" stroke-linecap="round"/>
<path d="M-13 3C-9 10 0 13 9 9M13-4C10-11 3-14-4-13" stroke="#F4E6DA" stroke-opacity=".6" stroke-width=".8"/></g>
<g transform="translate(52 22) rotate(-28) scale(0.42)" filter="url(#lift)" stroke-linejoin="round">
<path d="M-4 4C-10 20-17 34-27 47l11-2 3 11C-5 40-1 22 2 6Z" fill="url(#satin)" stroke="#2D6E69" stroke-width=".9"/>
<path d="M4 4C11 19 19 31 30 42l-11 0-1 11C10 37 4 21-1 6Z" fill="url(#satinR)" stroke="#2D6E69" stroke-width=".9"/>
<path d="M-2-1C-12-20-38-31-45-15-50-2-30 9-2 3Z" fill="url(#satin)" stroke="#2D6E69" stroke-width=".9"/>
<path d="M2-1C13-20 39-29 45-12 49 1 28 10 2 3Z" fill="url(#satinR)" stroke="#2D6E69" stroke-width=".9"/>
<path d="M-4-1C-15-10-30-14-37-9-30-5-17-2-4 1Z" fill="#3F918A" fill-opacity=".45"/>
<path d="M4-1C15-10 30-13 37-7 30-4 17-1 4 1Z" fill="#3F918A" fill-opacity=".45"/>
<path d="M-40-14C-33-24-20-22-11-14M14-14C24-22 36-21 41-11M-9 12C-13 24-18 33-22 41M9 12C14 22 20 30 25 37" stroke="#FFFFFF" stroke-opacity=".55" stroke-width="1.4" stroke-linecap="round"/>
<ellipse cx="0" cy="1" rx="7.5" ry="8.5" fill="#74BFB4" stroke="#2D6E69" stroke-width=".9"/>
<path d="M-4-3C-1-6 3-6 5-2" stroke="#FFFFFF" stroke-opacity=".6" stroke-width="1.2" stroke-linecap="round"/>
</g>
</svg>
