<svg xmlns="http://www.w3.org/2000/svg" viewBox="0 0 360 56" fill="none" ><defs>
<filter id="grain" x="0" y="0" width="100%" height="100%"><feTurbulence type="fractalNoise" baseFrequency=".8" numOctaves="3" seed="9" stitchTiles="stitch"/><feColorMatrix values="0 0 0 0 .32  0 0 0 0 .36  0 0 0 0 .4  0 0 0 .1 0"/><feComposite in2="SourceGraphic" operator="in"/></filter>
<filter id="lift" x="-20%" y="-20%" width="140%" height="140%"><feDropShadow dx="1.2" dy="3" stdDeviation="2.6" flood-color="#46525C" flood-opacity=".17"/></filter>
<filter id="liftS" x="-20%" y="-20%" width="140%" height="140%"><feDropShadow dx=".6" dy="1.3" stdDeviation="1.1" flood-color="#46525C" flood-opacity=".2"/></filter>
<filter id="soft" x="-10%" y="-10%" width="120%" height="120%"><feGaussianBlur stdDeviation="2.2"/></filter>
<radialGradient id="pearl" cx=".36" cy=".32" r=".75"><stop stop-color="#FFFFFF"/><stop offset=".45" stop-color="#F1F3F4"/><stop offset=".85" stop-color="#CDD3D8"/><stop offset="1" stop-color="#B3BBC2"/></radialGradient>
<linearGradient id="satin" x1="0" y1="0" x2="1" y2="1"><stop stop-color="#FFFFFF"/><stop offset=".4" stop-color="#EEF1F3"/><stop offset=".75" stop-color="#D3D9DE"/><stop offset="1" stop-color="#BAC2C9"/></linearGradient>
<linearGradient id="satinR" x1="1" y1="0" x2="0" y2="1"><stop stop-color="#FFFFFF"/><stop offset=".4" stop-color="#EEF1F3"/><stop offset=".75" stop-color="#D3D9DE"/><stop offset="1" stop-color="#BAC2C9"/></linearGradient>
<linearGradient id="metal" x1="0" y1="0" x2="1" y2="1"><stop stop-color="#F6F8F9"/><stop offset=".3" stop-color="#B8C0C6"/><stop offset=".55" stop-color="#E6EAED"/><stop offset=".8" stop-color="#8F99A1"/><stop offset="1" stop-color="#C9D0D5"/></linearGradient>
<linearGradient id="ivory" x1="0" y1="0" x2="1" y2="1"><stop stop-color="#FFFFFF"/><stop offset="1" stop-color="#EEF0EE"/></linearGradient>
<linearGradient id="vellum" x1="0" y1="0" x2="1" y2="1"><stop stop-color="#FFFFFF" stop-opacity=".78"/><stop offset="1" stop-color="#E9EEF1" stop-opacity=".62"/></linearGradient>
<linearGradient id="euca" x1="0" y1="0" x2="1" y2="1"><stop stop-color="#DCE7E3"/><stop offset=".55" stop-color="#ABC1B9"/><stop offset="1" stop-color="#8CA59C"/></linearGradient>
<linearGradient id="sage" x1="0" y1="0" x2="1" y2="1"><stop stop-color="#B9C6A6"/><stop offset=".6" stop-color="#8E9F79"/><stop offset="1" stop-color="#6F8160"/></linearGradient>
<radialGradient id="cdBase" cx=".5" cy=".5" r=".5"><stop offset=".3" stop-color="#F3F6F7"/><stop offset=".7" stop-color="#DCE3E7"/><stop offset=".97" stop-color="#EEF2F4"/><stop offset="1" stop-color="#AEB8BF"/></radialGradient>
<pattern id="lace" width="18" height="24" patternUnits="userSpaceOnUse"><path d="M0 0h18v14c-3 0-3 6-9 6s-6-6-9-6Z" fill="#FFFFFF" fill-opacity=".95"/><path d="M0 14c3 0 3 6 9 6s6-6 9-6" fill="none" stroke="#CBD2D7" stroke-width=".8"/><circle cx="9" cy="6" r="2.6" fill="none" stroke="#C7CED4" stroke-width=".8"/><circle cx="9" cy="6" r=".9" fill="#C7CED4"/><circle cx="0" cy="10" r="1.3" fill="#DDE2E6"/><circle cx="18" cy="10" r="1.3" fill="#DDE2E6"/><circle cx="9" cy="15.5" r="1.1" fill="#DDE2E6"/><path d="M3 2.5h12" stroke="#D3D9DD" stroke-width=".6" stroke-dasharray="1.2 1.4"/></pattern>
<pattern id="hatch" width="4" height="4" patternUnits="userSpaceOnUse" patternTransform="rotate(35)"><path d="M0 0v4" stroke="#70757B" stroke-width=".7" stroke-opacity=".5"/></pattern>
<pattern id="tapeStripe" width="9" height="9" patternUnits="userSpaceOnUse" patternTransform="rotate(45)"><rect width="4" height="9" fill="#FFFFFF" fill-opacity=".34"/></pattern>
<pattern id="tapeDot" width="8" height="8" patternUnits="userSpaceOnUse"><circle cx="4" cy="4" r="1.3" fill="#7C8790" fill-opacity=".45"/></pattern>
</defs>
<path d="M10 30H162M198 30H350" stroke="#AEB7BE" stroke-width=".7"/><path d="M30 33H150M210 33H330" stroke="#D5C2C5" stroke-width=".5" stroke-dasharray="1.5 2.5"/>
<g filter="url(#liftS)"><circle cx="118.0" cy="30.0" r="2.2" fill="url(#pearl)" stroke="#AEB6BD" stroke-width=".35"/><circle cx="122.7" cy="30.0" r="2.2" fill="url(#pearl)" stroke="#AEB6BD" stroke-width=".35"/><circle cx="127.5" cy="30.0" r="2.2" fill="url(#pearl)" stroke="#AEB6BD" stroke-width=".35"/><circle cx="132.2" cy="30.0" r="2.2" fill="url(#pearl)" stroke="#AEB6BD" stroke-width=".35"/><circle cx="136.9" cy="30.0" r="2.2" fill="url(#pearl)" stroke="#AEB6BD" stroke-width=".35"/><circle cx="141.7" cy="30.0" r="2.2" fill="url(#pearl)" stroke="#AEB6BD" stroke-width=".35"/><circle cx="146.4" cy="30.0" r="2.2" fill="url(#pearl)" stroke="#AEB6BD" stroke-width=".35"/><circle cx="151.1" cy="30.0" r="2.2" fill="url(#pearl)" stroke="#AEB6BD" stroke-width=".35"/><circle cx="155.8" cy="30.0" r="2.2" fill="url(#pearl)" stroke="#AEB6BD" stroke-width=".35"/></g>
<g filter="url(#liftS)"><circle cx="200.0" cy="30.0" r="2.2" fill="url(#pearl)" stroke="#AEB6BD" stroke-width=".35"/><circle cx="204.7" cy="30.0" r="2.2" fill="url(#pearl)" stroke="#AEB6BD" stroke-width=".35"/><circle cx="209.5" cy="30.0" r="2.2" fill="url(#pearl)" stroke="#AEB6BD" stroke-width=".35"/><circle cx="214.2" cy="30.0" r="2.2" fill="url(#pearl)" stroke="#AEB6BD" stroke-width=".35"/><circle cx="218.9" cy="30.0" r="2.2" fill="url(#pearl)" stroke="#AEB6BD" stroke-width=".35"/><circle cx="223.7" cy="30.0" r="2.2" fill="url(#pearl)" stroke="#AEB6BD" stroke-width=".35"/><circle cx="228.4" cy="30.0" r="2.2" fill="url(#pearl)" stroke="#AEB6BD" stroke-width=".35"/><circle cx="233.1" cy="30.0" r="2.2" fill="url(#pearl)" stroke="#AEB6BD" stroke-width=".35"/><circle cx="237.8" cy="30.0" r="2.2" fill="url(#pearl)" stroke="#AEB6BD" stroke-width=".35"/></g>
<g transform="translate(166 30) scale(-1 1)"><path d="M0 0C6-7 16-8 22-4 15 1 7 2 0 0Z" fill="url(#euca)" stroke="#71897F" stroke-width=".45"/><path d="M2 1C8 7 17 8 22 4 16 0 8-1 2 1Z" fill="url(#euca)" stroke="#71897F" stroke-width=".45"/></g>
<g transform="translate(194 30) scale(1 1)"><path d="M0 0C6-7 16-8 22-4 15 1 7 2 0 0Z" fill="url(#euca)" stroke="#71897F" stroke-width=".45"/><path d="M2 1C8 7 17 8 22 4 16 0 8-1 2 1Z" fill="url(#euca)" stroke="#71897F" stroke-width=".45"/></g>
<g transform="translate(180 29) rotate(0) scale(1 1.0)" filter="url(#liftS)"><ellipse cx="0" cy="-4.0" rx="1.3" ry="3.6" transform="rotate(-3)" fill="#FFFFFF" stroke="#CDD2D0" stroke-width=".45"/><ellipse cx="0" cy="-4.1" rx="1.3" ry="3.7" transform="rotate(21)" fill="#FFFFFF" stroke="#CDD2D0" stroke-width=".45"/><ellipse cx="0" cy="-3.7" rx="1.3" ry="3.3" transform="rotate(46)" fill="#FFFFFF" stroke="#CDD2D0" stroke-width=".45"/><ellipse cx="0" cy="-4.2" rx="1.3" ry="3.8" transform="rotate(63)" fill="#FFFFFF" stroke="#CDD2D0" stroke-width=".45"/><ellipse cx="0" cy="-3.8" rx="1.3" ry="3.4" transform="rotate(88)" fill="#FFFFFF" stroke="#CDD2D0" stroke-width=".45"/><ellipse cx="0" cy="-4.0" rx="1.3" ry="3.6" transform="rotate(117)" fill="#FFFFFF" stroke="#CDD2D0" stroke-width=".45"/><ellipse cx="0" cy="-4.0" rx="1.3" ry="3.6" transform="rotate(138)" fill="#FFFFFF" stroke="#CDD2D0" stroke-width=".45"/><ellipse cx="0" cy="-3.7" rx="1.3" ry="3.4" transform="rotate(159)" fill="#FFFFFF" stroke="#CDD2D0" stroke-width=".45"/><ellipse cx="0" cy="-4.2" rx="1.3" ry="3.9" transform="rotate(181)" fill="#FFFFFF" stroke="#CDD2D0" stroke-width=".45"/><ellipse cx="0" cy="-4.1" rx="1.3" ry="3.8" transform="rotate(203)" fill="#FFFFFF" stroke="#CDD2D0" stroke-width=".45"/><ellipse cx="0" cy="-3.7" rx="1.3" ry="3.3" transform="rotate(227)" fill="#FFFFFF" stroke="#CDD2D0" stroke-width=".45"/><ellipse cx="0" cy="-4.0" rx="1.3" ry="3.7" transform="rotate(250)" fill="#FFFFFF" stroke="#CDD2D0" stroke-width=".45"/><ellipse cx="0" cy="-3.7" rx="1.3" ry="3.3" transform="rotate(268)" fill="#FFFFFF" stroke="#CDD2D0" stroke-width=".45"/><ellipse cx="0" cy="-4.0" rx="1.3" ry="3.6" transform="rotate(296)" fill="#FFFFFF" stroke="#CDD2D0" stroke-width=".45"/><ellipse cx="0" cy="-4.2" rx="1.3" ry="3.9" transform="rotate(317)" fill="#FFFFFF" stroke="#CDD2D0" stroke-width=".45"/><ellipse cx="0" cy="-4.3" rx="1.3" ry="3.9" transform="rotate(340)" fill="#FFFFFF" stroke="#CDD2D0" stroke-width=".45"/>
<circle r="2.7" fill="#EBC94F" stroke="#C9A332" stroke-width=".5"/><circle cx="-0.8" cy="-0.9" r="1.1" fill="#F6E294"/><circle cx="-0.4" cy="1.1" r=".55" fill="#B88F22" fill-opacity=".7"/><circle cx="-0.2" cy="1.6" r=".55" fill="#B88F22" fill-opacity=".7"/><circle cx="1.4" cy="-1.5" r=".55" fill="#B88F22" fill-opacity=".7"/><circle cx="-1.4" cy="-1.1" r=".55" fill="#B88F22" fill-opacity=".7"/><circle cx="1.7" cy="-0.2" r=".55" fill="#B88F22" fill-opacity=".7"/><circle cx="0.5" cy="-0.7" r=".55" fill="#B88F22" fill-opacity=".7"/><circle cx="0.0" cy="-0.4" r=".55" fill="#B88F22" fill-opacity=".7"/></g>
<circle cx="10" cy="30" r="2.4" fill="url(#pearl)" stroke="#AEB6BD" stroke-width=".35"/>
<circle cx="350" cy="30" r="2.4" fill="url(#pearl)" stroke="#AEB6BD" stroke-width=".35"/>
</svg>
