<svg xmlns="http://www.w3.org/2000/svg" viewBox="0 0 200 200" fill="none" ><defs>
<filter id="lift" x="-25%" y="-25%" width="150%" height="150%"><feDropShadow dx="0" dy="2.4" stdDeviation="2.2" flood-color="#3E2A20" flood-opacity=".22"/></filter>
<filter id="liftS" x="-25%" y="-25%" width="150%" height="150%"><feDropShadow dx="0" dy="1.2" stdDeviation="1" flood-color="#3E2A20" flood-opacity=".24"/></filter>
<pattern id="dotsMint" width="10" height="10" patternUnits="userSpaceOnUse"><rect width="10" height="10" fill="#C4E2D0"/><circle cx="2.5" cy="2.5" r="1.25" fill="#56473A"/><circle cx="7.5" cy="7.5" r="1.25" fill="#56473A"/></pattern>
<pattern id="dotsChoco" width="10" height="10" patternUnits="userSpaceOnUse"><rect width="10" height="10" fill="#7A5F4E"/><circle cx="2.5" cy="2.5" r="1.2" fill="#FBF6EC"/><circle cx="7.5" cy="7.5" r="1.2" fill="#FBF6EC"/></pattern>
<pattern id="dotsCream" width="9" height="9" patternUnits="userSpaceOnUse"><rect width="9" height="9" fill="#FBF6EC"/><circle cx="2.25" cy="2.25" r=".95" fill="#9FCDB6"/><circle cx="6.75" cy="6.75" r=".95" fill="#9FCDB6"/></pattern>
<pattern id="stripeSky" width="10" height="10" patternUnits="userSpaceOnUse"><rect width="10" height="10" fill="#FFFFFF"/><rect width="5" height="10" fill="#A9CEDA"/></pattern>
<pattern id="cupStripe" width="7" height="10" patternUnits="userSpaceOnUse"><rect width="7" height="10" fill="#7A5F4E"/><rect width="3" height="10" fill="#56473A"/></pattern>
<pattern id="tapeStripe" width="9" height="9" patternUnits="userSpaceOnUse" patternTransform="rotate(45)"><rect width="4" height="9" fill="#FFFFFF" fill-opacity=".3"/></pattern>
<linearGradient id="choco" x1="0" y1="0" x2="1" y2="1"><stop stop-color="#6E5546"/><stop offset="1" stop-color="#3E2A20"/></linearGradient>
<linearGradient id="gold" x1="0" y1="0" x2="1" y2="1"><stop stop-color="#EBD3A6"/><stop offset=".5" stop-color="#CAA67F"/><stop offset="1" stop-color="#A8844F"/></linearGradient>
<radialGradient id="pearl" cx=".34" cy=".3" r=".78"><stop stop-color="#FFFFFF"/><stop offset=".42" stop-color="#F6F2EC"/><stop offset=".82" stop-color="#D8D0C5"/><stop offset="1" stop-color="#BFB5A8"/></radialGradient>
<linearGradient id="paperW" x1="0" y1="0" x2="1" y2="1"><stop stop-color="#FFFFFF"/><stop offset=".7" stop-color="#F7F4F0"/><stop offset="1" stop-color="#E7E2DB"/></linearGradient>
<linearGradient id="satin" x1="0" y1="0" x2="0" y2="1"><stop stop-color="#FFFFFF"/><stop offset=".45" stop-color="#F6F2EA"/><stop offset=".55" stop-color="#ECE6DB"/><stop offset="1" stop-color="#FAF7F1"/></linearGradient>
<linearGradient id="satinPink" x1="0" y1="0" x2="1" y2="1"><stop stop-color="#F9E6E8"/><stop offset=".45" stop-color="#E9B9BF"/><stop offset="1" stop-color="#C98D95"/></linearGradient>
<pattern id="ginghamMint" width="12" height="12" patternUnits="userSpaceOnUse"><rect width="12" height="12" fill="#F6FBF8"/><rect width="6" height="12" fill="#9FCDB6" fill-opacity=".38"/><rect width="12" height="6" fill="#9FCDB6" fill-opacity=".38"/></pattern>
<pattern id="ginghamCocoa" width="12" height="12" patternUnits="userSpaceOnUse"><rect width="12" height="12" fill="#FBF8F4"/><rect width="6" height="12" fill="#8E7F72" fill-opacity=".32"/><rect width="12" height="6" fill="#8E7F72" fill-opacity=".32"/></pattern>
<pattern id="ginghamSky" width="12" height="12" patternUnits="userSpaceOnUse"><rect width="12" height="12" fill="#F7FBFD"/><rect width="6" height="12" fill="#A9CEDA" fill-opacity=".4"/><rect width="12" height="6" fill="#A9CEDA" fill-opacity=".4"/></pattern>
<radialGradient id="pom" cx=".5" cy=".5" r=".5"><stop stop-color="#FFFDF7"/><stop offset=".55" stop-color="#F3E6D2"/><stop offset="1" stop-color="#E2CDB0" stop-opacity="0"/></radialGradient>
</defs>
<g transform="translate(132.0 120.0) rotate(18.0) scale(0.500)" filter="url(#lift)"><path d="M-30 2C-30-22 30-22 30 2Z" fill="#9FCDB6" stroke="#56473A" stroke-opacity=".5" stroke-width="1.2"/><path d="M-29 2h58" stroke="#56473A" stroke-opacity=".35" stroke-width="3" stroke-dasharray="2 2"/><rect x="-28" y="2" width="56" height="9" rx="4.5" fill="#FBF6EC" stroke="#56473A" stroke-opacity=".3" stroke-width="1"/><path d="M-29 11h58" stroke="#56473A" stroke-opacity=".35" stroke-width="3" stroke-dasharray="2 2"/><path d="M-30 11C-30 30 30 30 30 11Z" fill="#9FCDB6" stroke="#56473A" stroke-opacity=".5" stroke-width="1.2"/><ellipse cx="-10" cy="-10" rx="11" ry="4" fill="#FFFFFF" fill-opacity=".55"/><circle cx="6" cy="-8" r="1.2" fill="#56473A"/><circle cx="14" cy="-5" r="1.2" fill="#56473A"/><circle cx="-2" cy="-4" r="1.2" fill="#56473A"/></g>
<g transform="translate(78.0 74.0) rotate(-16.0) scale(0.950)" filter="url(#lift)"><path d="M0 4C-6 22 -18 34 -28 50" stroke="#C9BBA8" stroke-width="12.6"/><path d="M0 4C-6 22 -18 34 -28 50" stroke="#FFFFFF" stroke-width="11"/><circle cx="-5.4" cy="2.2" r="1.4" fill="#FFFFFF" stroke="#C9BBA8" stroke-width=".6"/><circle cx="5.4" cy="5.8" r="1.4" fill="#FFFFFF" stroke="#C9BBA8" stroke-width=".6"/><circle cx="-7.7" cy="8.2" r="1.4" fill="#FFFFFF" stroke="#C9BBA8" stroke-width=".6"/><circle cx="2.7" cy="12.8" r="1.4" fill="#FFFFFF" stroke="#C9BBA8" stroke-width=".6"/><circle cx="-2.5" cy="10.5" r="0.9" fill="#C9BBA8"/><circle cx="-10.5" cy="13.8" r="1.4" fill="#FFFFFF" stroke="#C9BBA8" stroke-width=".6"/><circle cx="-0.5" cy="19.3" r="1.4" fill="#FFFFFF" stroke="#C9BBA8" stroke-width=".6"/><ellipse cx="-5.5" cy="16.5" rx="3.3" ry="1.9" transform="rotate(119 -5.5 16.5)" fill="#E6DCCF" stroke="#C9BBA8" stroke-width=".6"/><circle cx="-13.7" cy="19.2" r="1.4" fill="#FFFFFF" stroke="#C9BBA8" stroke-width=".6"/><circle cx="-4.0" cy="25.3" r="1.4" fill="#FFFFFF" stroke="#C9BBA8" stroke-width=".6"/><circle cx="-8.9" cy="22.2" r="0.9" fill="#C9BBA8"/><circle cx="-17.2" cy="24.5" r="1.4" fill="#FFFFFF" stroke="#C9BBA8" stroke-width=".6"/><circle cx="-7.8" cy="31.0" r="1.4" fill="#FFFFFF" stroke="#C9BBA8" stroke-width=".6"/><ellipse cx="-12.5" cy="27.8" rx="3.3" ry="1.9" transform="rotate(125 -12.5 27.8)" fill="#E6DCCF" stroke="#C9BBA8" stroke-width=".6"/><circle cx="-21.0" cy="29.8" r="1.4" fill="#FFFFFF" stroke="#C9BBA8" stroke-width=".6"/><circle cx="-11.7" cy="36.5" r="1.4" fill="#FFFFFF" stroke="#C9BBA8" stroke-width=".6"/><circle cx="-16.3" cy="33.2" r="0.9" fill="#C9BBA8"/><circle cx="-24.9" cy="35.3" r="1.4" fill="#FFFFFF" stroke="#C9BBA8" stroke-width=".6"/><circle cx="-15.6" cy="41.9" r="1.4" fill="#FFFFFF" stroke="#C9BBA8" stroke-width=".6"/><ellipse cx="-20.2" cy="38.6" rx="3.3" ry="1.9" transform="rotate(126 -20.2 38.6)" fill="#E6DCCF" stroke="#C9BBA8" stroke-width=".6"/><circle cx="-28.9" cy="40.9" r="1.4" fill="#FFFFFF" stroke="#C9BBA8" stroke-width=".6"/><circle cx="-19.5" cy="47.4" r="1.4" fill="#FFFFFF" stroke="#C9BBA8" stroke-width=".6"/><circle cx="-24.2" cy="44.2" r="0.9" fill="#C9BBA8"/><circle cx="-32.9" cy="47.0" r="1.4" fill="#FFFFFF" stroke="#C9BBA8" stroke-width=".6"/><circle cx="-23.1" cy="53.0" r="1.4" fill="#FFFFFF" stroke="#C9BBA8" stroke-width=".6"/><path d="M0 4C8 22 20 36 24 52" stroke="#C9BBA8" stroke-width="12.6"/><path d="M0 4C8 22 20 36 24 52" stroke="#FFFFFF" stroke-width="11"/><circle cx="-5.2" cy="6.3" r="1.4" fill="#FFFFFF" stroke="#C9BBA8" stroke-width=".6"/><circle cx="5.2" cy="1.7" r="1.4" fill="#FFFFFF" stroke="#C9BBA8" stroke-width=".6"/><circle cx="-1.9" cy="13.2" r="1.4" fill="#FFFFFF" stroke="#C9BBA8" stroke-width=".6"/><circle cx="8.2" cy="8.0" r="1.4" fill="#FFFFFF" stroke="#C9BBA8" stroke-width=".6"/><circle cx="3.2" cy="10.6" r="0.9" fill="#C9BBA8"/><circle cx="1.6" cy="19.7" r="1.4" fill="#FFFFFF" stroke="#C9BBA8" stroke-width=".6"/><circle cx="11.5" cy="14.0" r="1.4" fill="#FFFFFF" stroke="#C9BBA8" stroke-width=".6"/><ellipse cx="6.6" cy="16.8" rx="3.3" ry="1.9" transform="rotate(61 6.6 16.8)" fill="#E6DCCF" stroke="#C9BBA8" stroke-width=".6"/><circle cx="5.1" cy="25.8" r="1.4" fill="#FFFFFF" stroke="#C9BBA8" stroke-width=".6"/><circle cx="15.0" cy="20.0" r="1.4" fill="#FFFFFF" stroke="#C9BBA8" stroke-width=".6"/><circle cx="10.1" cy="22.9" r="0.9" fill="#C9BBA8"/><circle cx="8.6" cy="31.6" r="1.4" fill="#FFFFFF" stroke="#C9BBA8" stroke-width=".6"/><circle cx="18.4" cy="25.9" r="1.4" fill="#FFFFFF" stroke="#C9BBA8" stroke-width=".6"/><ellipse cx="13.5" cy="28.8" rx="3.3" ry="1.9" transform="rotate(60 13.5 28.8)" fill="#E6DCCF" stroke="#C9BBA8" stroke-width=".6"/><circle cx="11.7" cy="37.3" r="1.4" fill="#FFFFFF" stroke="#C9BBA8" stroke-width=".6"/><circle cx="21.8" cy="31.8" r="1.4" fill="#FFFFFF" stroke="#C9BBA8" stroke-width=".6"/><circle cx="16.8" cy="34.5" r="0.9" fill="#C9BBA8"/><circle cx="14.5" cy="42.7" r="1.4" fill="#FFFFFF" stroke="#C9BBA8" stroke-width=".6"/><circle cx="24.9" cy="37.8" r="1.4" fill="#FFFFFF" stroke="#C9BBA8" stroke-width=".6"/><ellipse cx="19.7" cy="40.3" rx="3.3" ry="1.9" transform="rotate(65 19.7 40.3)" fill="#E6DCCF" stroke="#C9BBA8" stroke-width=".6"/><circle cx="16.8" cy="48.1" r="1.4" fill="#FFFFFF" stroke="#C9BBA8" stroke-width=".6"/><circle cx="27.5" cy="44.1" r="1.4" fill="#FFFFFF" stroke="#C9BBA8" stroke-width=".6"/><circle cx="22.1" cy="46.1" r="0.9" fill="#C9BBA8"/><circle cx="18.5" cy="53.4" r="1.4" fill="#FFFFFF" stroke="#C9BBA8" stroke-width=".6"/><circle cx="29.5" cy="50.6" r="1.4" fill="#FFFFFF" stroke="#C9BBA8" stroke-width=".6"/><path d="M0 0C-10 -30 -56 -34 -48 -4" stroke="#C9BBA8" stroke-width="13.6"/><path d="M0 0C-10 -30 -56 -34 -48 -4" stroke="#FFFFFF" stroke-width="12"/><circle cx="5.9" cy="-2.0" r="1.6" fill="#FFFFFF" stroke="#C9BBA8" stroke-width=".6"/><circle cx="-5.9" cy="2.0" r="1.6" fill="#FFFFFF" stroke="#C9BBA8" stroke-width=".6"/><circle cx="1.7" cy="-10.8" r="1.6" fill="#FFFFFF" stroke="#C9BBA8" stroke-width=".6"/><circle cx="-8.8" cy="-4.2" r="1.6" fill="#FFFFFF" stroke="#C9BBA8" stroke-width=".6"/><circle cx="-3.6" cy="-7.5" r="1.0" fill="#C9BBA8"/><circle cx="-4.1" cy="-18.1" r="1.6" fill="#FFFFFF" stroke="#C9BBA8" stroke-width=".6"/><circle cx="-12.9" cy="-9.3" r="1.6" fill="#FFFFFF" stroke="#C9BBA8" stroke-width=".6"/><ellipse cx="-8.5" cy="-13.7" rx="3.6" ry="2.0" transform="rotate(-135 -8.5 -13.7)" fill="#E6DCCF" stroke="#C9BBA8" stroke-width=".6"/><circle cx="-10.9" cy="-23.8" r="1.6" fill="#FFFFFF" stroke="#C9BBA8" stroke-width=".6"/><circle cx="-17.8" cy="-13.4" r="1.6" fill="#FFFFFF" stroke="#C9BBA8" stroke-width=".6"/><circle cx="-14.4" cy="-18.6" r="1.0" fill="#C9BBA8"/><circle cx="-18.5" cy="-27.8" r="1.6" fill="#FFFFFF" stroke="#C9BBA8" stroke-width=".6"/><circle cx="-23.2" cy="-16.3" r="1.6" fill="#FFFFFF" stroke="#C9BBA8" stroke-width=".6"/><ellipse cx="-20.9" cy="-22.0" rx="3.6" ry="2.0" transform="rotate(-158 -20.9 -22.0)" fill="#E6DCCF" stroke="#C9BBA8" stroke-width=".6"/><circle cx="-26.3" cy="-30.2" r="1.6" fill="#FFFFFF" stroke="#C9BBA8" stroke-width=".6"/><circle cx="-28.7" cy="-17.9" r="1.6" fill="#FFFFFF" stroke="#C9BBA8" stroke-width=".6"/><circle cx="-27.5" cy="-24.0" r="1.0" fill="#C9BBA8"/><circle cx="-34.1" cy="-30.8" r="1.6" fill="#FFFFFF" stroke="#C9BBA8" stroke-width=".6"/><circle cx="-33.7" cy="-18.3" r="1.6" fill="#FFFFFF" stroke="#C9BBA8" stroke-width=".6"/><ellipse cx="-33.9" cy="-24.6" rx="3.6" ry="2.0" transform="rotate(178 -33.9 -24.6)" fill="#E6DCCF" stroke="#C9BBA8" stroke-width=".6"/><circle cx="-41.6" cy="-29.6" r="1.6" fill="#FFFFFF" stroke="#C9BBA8" stroke-width=".6"/><circle cx="-37.7" cy="-17.7" r="1.6" fill="#FFFFFF" stroke="#C9BBA8" stroke-width=".6"/><circle cx="-39.6" cy="-23.6" r="1.0" fill="#C9BBA8"/><circle cx="-48.3" cy="-26.0" r="1.6" fill="#FFFFFF" stroke="#C9BBA8" stroke-width=".6"/><circle cx="-40.4" cy="-16.3" r="1.6" fill="#FFFFFF" stroke="#C9BBA8" stroke-width=".6"/><ellipse cx="-44.3" cy="-21.1" rx="3.6" ry="2.0" transform="rotate(141 -44.3 -21.1)" fill="#E6DCCF" stroke="#C9BBA8" stroke-width=".6"/><circle cx="-53.2" cy="-19.8" r="1.6" fill="#FFFFFF" stroke="#C9BBA8" stroke-width=".6"/><circle cx="-41.9" cy="-14.3" r="1.6" fill="#FFFFFF" stroke="#C9BBA8" stroke-width=".6"/><circle cx="-47.5" cy="-17.0" r="1.0" fill="#C9BBA8"/><circle cx="-55.1" cy="-11.6" r="1.6" fill="#FFFFFF" stroke="#C9BBA8" stroke-width=".6"/><circle cx="-42.7" cy="-11.1" r="1.6" fill="#FFFFFF" stroke="#C9BBA8" stroke-width=".6"/><ellipse cx="-48.9" cy="-11.3" rx="3.6" ry="2.0" transform="rotate(93 -48.9 -11.3)" fill="#E6DCCF" stroke="#C9BBA8" stroke-width=".6"/><circle cx="-54.0" cy="-2.4" r="1.6" fill="#FFFFFF" stroke="#C9BBA8" stroke-width=".6"/><circle cx="-42.0" cy="-5.6" r="1.6" fill="#FFFFFF" stroke="#C9BBA8" stroke-width=".6"/><path d="M-48 -4C-42 18 -12 12 0 0" stroke="#C9BBA8" stroke-width="13.6"/><path d="M-48 -4C-42 18 -12 12 0 0" stroke="#FFFFFF" stroke-width="12"/><circle cx="-54.0" cy="-2.4" r="1.6" fill="#FFFFFF" stroke="#C9BBA8" stroke-width=".6"/><circle cx="-42.0" cy="-5.6" r="1.6" fill="#FFFFFF" stroke="#C9BBA8" stroke-width=".6"/><circle cx="-49.7" cy="6.7" r="1.6" fill="#FFFFFF" stroke="#C9BBA8" stroke-width=".6"/><circle cx="-39.7" cy="-0.7" r="1.6" fill="#FFFFFF" stroke="#C9BBA8" stroke-width=".6"/><circle cx="-44.7" cy="3.0" r="1.0" fill="#C9BBA8"/><circle cx="-42.9" cy="12.9" r="1.6" fill="#FFFFFF" stroke="#C9BBA8" stroke-width=".6"/><circle cx="-36.4" cy="2.3" r="1.6" fill="#FFFFFF" stroke="#C9BBA8" stroke-width=".6"/><ellipse cx="-39.7" cy="7.6" rx="3.6" ry="2.0" transform="rotate(31 -39.7 7.6)" fill="#E6DCCF" stroke="#C9BBA8" stroke-width=".6"/><circle cx="-34.7" cy="16.2" r="1.6" fill="#FFFFFF" stroke="#C9BBA8" stroke-width=".6"/><circle cx="-32.0" cy="4.0" r="1.6" fill="#FFFFFF" stroke="#C9BBA8" stroke-width=".6"/><circle cx="-33.3" cy="10.1" r="1.0" fill="#C9BBA8"/><circle cx="-26.1" cy="17.0" r="1.6" fill="#FFFFFF" stroke="#C9BBA8" stroke-width=".6"/><circle cx="-26.4" cy="4.5" r="1.6" fill="#FFFFFF" stroke="#C9BBA8" stroke-width=".6"/><ellipse cx="-26.2" cy="10.8" rx="3.6" ry="2.0" transform="rotate(-1 -26.2 10.8)" fill="#E6DCCF" stroke="#C9BBA8" stroke-width=".6"/><circle cx="-17.5" cy="15.9" r="1.6" fill="#FFFFFF" stroke="#C9BBA8" stroke-width=".6"/><circle cx="-20.2" cy="3.7" r="1.6" fill="#FFFFFF" stroke="#C9BBA8" stroke-width=".6"/><circle cx="-18.9" cy="9.8" r="1.0" fill="#C9BBA8"/><circle cx="-9.3" cy="13.3" r="1.6" fill="#FFFFFF" stroke="#C9BBA8" stroke-width=".6"/><circle cx="-14.1" cy="1.8" r="1.6" fill="#FFFFFF" stroke="#C9BBA8" stroke-width=".6"/><ellipse cx="-11.7" cy="7.5" rx="3.6" ry="2.0" transform="rotate(-23 -11.7 7.5)" fill="#E6DCCF" stroke="#C9BBA8" stroke-width=".6"/><circle cx="-1.9" cy="9.4" r="1.6" fill="#FFFFFF" stroke="#C9BBA8" stroke-width=".6"/><circle cx="-8.6" cy="-1.1" r="1.6" fill="#FFFFFF" stroke="#C9BBA8" stroke-width=".6"/><circle cx="-5.3" cy="4.2" r="1.0" fill="#C9BBA8"/><circle cx="4.4" cy="4.4" r="1.6" fill="#FFFFFF" stroke="#C9BBA8" stroke-width=".6"/><circle cx="-4.4" cy="-4.4" r="1.6" fill="#FFFFFF" stroke="#C9BBA8" stroke-width=".6"/><path d="M0 0C10 -30 56 -34 48 -4" stroke="#C9BBA8" stroke-width="13.6"/><path d="M0 0C10 -30 56 -34 48 -4" stroke="#FFFFFF" stroke-width="12"/><circle cx="5.9" cy="2.0" r="1.6" fill="#FFFFFF" stroke="#C9BBA8" stroke-width=".6"/><circle cx="-5.9" cy="-2.0" r="1.6" fill="#FFFFFF" stroke="#C9BBA8" stroke-width=".6"/><circle cx="8.8" cy="-4.2" r="1.6" fill="#FFFFFF" stroke="#C9BBA8" stroke-width=".6"/><circle cx="-1.7" cy="-10.8" r="1.6" fill="#FFFFFF" stroke="#C9BBA8" stroke-width=".6"/><circle cx="3.6" cy="-7.5" r="1.0" fill="#C9BBA8"/><circle cx="12.9" cy="-9.3" r="1.6" fill="#FFFFFF" stroke="#C9BBA8" stroke-width=".6"/><circle cx="4.1" cy="-18.1" r="1.6" fill="#FFFFFF" stroke="#C9BBA8" stroke-width=".6"/><ellipse cx="8.5" cy="-13.7" rx="3.6" ry="2.0" transform="rotate(-45 8.5 -13.7)" fill="#E6DCCF" stroke="#C9BBA8" stroke-width=".6"/><circle cx="17.8" cy="-13.4" r="1.6" fill="#FFFFFF" stroke="#C9BBA8" stroke-width=".6"/><circle cx="10.9" cy="-23.8" r="1.6" fill="#FFFFFF" stroke="#C9BBA8" stroke-width=".6"/><circle cx="14.4" cy="-18.6" r="1.0" fill="#C9BBA8"/><circle cx="23.2" cy="-16.3" r="1.6" fill="#FFFFFF" stroke="#C9BBA8" stroke-width=".6"/><circle cx="18.5" cy="-27.8" r="1.6" fill="#FFFFFF" stroke="#C9BBA8" stroke-width=".6"/><ellipse cx="20.9" cy="-22.0" rx="3.6" ry="2.0" transform="rotate(-22 20.9 -22.0)" fill="#E6DCCF" stroke="#C9BBA8" stroke-width=".6"/><circle cx="28.7" cy="-17.9" r="1.6" fill="#FFFFFF" stroke="#C9BBA8" stroke-width=".6"/><circle cx="26.3" cy="-30.2" r="1.6" fill="#FFFFFF" stroke="#C9BBA8" stroke-width=".6"/><circle cx="27.5" cy="-24.0" r="1.0" fill="#C9BBA8"/><circle cx="33.7" cy="-18.3" r="1.6" fill="#FFFFFF" stroke="#C9BBA8" stroke-width=".6"/><circle cx="34.1" cy="-30.8" r="1.6" fill="#FFFFFF" stroke="#C9BBA8" stroke-width=".6"/><ellipse cx="33.9" cy="-24.6" rx="3.6" ry="2.0" transform="rotate(2 33.9 -24.6)" fill="#E6DCCF" stroke="#C9BBA8" stroke-width=".6"/><circle cx="37.7" cy="-17.7" r="1.6" fill="#FFFFFF" stroke="#C9BBA8" stroke-width=".6"/><circle cx="41.6" cy="-29.6" r="1.6" fill="#FFFFFF" stroke="#C9BBA8" stroke-width=".6"/><circle cx="39.6" cy="-23.6" r="1.0" fill="#C9BBA8"/><circle cx="40.4" cy="-16.3" r="1.6" fill="#FFFFFF" stroke="#C9BBA8" stroke-width=".6"/><circle cx="48.3" cy="-26.0" r="1.6" fill="#FFFFFF" stroke="#C9BBA8" stroke-width=".6"/><ellipse cx="44.3" cy="-21.1" rx="3.6" ry="2.0" transform="rotate(39 44.3 -21.1)" fill="#E6DCCF" stroke="#C9BBA8" stroke-width=".6"/><circle cx="41.9" cy="-14.3" r="1.6" fill="#FFFFFF" stroke="#C9BBA8" stroke-width=".6"/><circle cx="53.2" cy="-19.8" r="1.6" fill="#FFFFFF" stroke="#C9BBA8" stroke-width=".6"/><circle cx="47.5" cy="-17.0" r="1.0" fill="#C9BBA8"/><circle cx="42.7" cy="-11.1" r="1.6" fill="#FFFFFF" stroke="#C9BBA8" stroke-width=".6"/><circle cx="55.1" cy="-11.6" r="1.6" fill="#FFFFFF" stroke="#C9BBA8" stroke-width=".6"/><ellipse cx="48.9" cy="-11.3" rx="3.6" ry="2.0" transform="rotate(87 48.9 -11.3)" fill="#E6DCCF" stroke="#C9BBA8" stroke-width=".6"/><circle cx="42.0" cy="-5.6" r="1.6" fill="#FFFFFF" stroke="#C9BBA8" stroke-width=".6"/><circle cx="54.0" cy="-2.4" r="1.6" fill="#FFFFFF" stroke="#C9BBA8" stroke-width=".6"/><path d="M48 -4C42 18 12 12 0 0" stroke="#C9BBA8" stroke-width="13.6"/><path d="M48 -4C42 18 12 12 0 0" stroke="#FFFFFF" stroke-width="12"/><circle cx="42.0" cy="-5.6" r="1.6" fill="#FFFFFF" stroke="#C9BBA8" stroke-width=".6"/><circle cx="54.0" cy="-2.4" r="1.6" fill="#FFFFFF" stroke="#C9BBA8" stroke-width=".6"/><circle cx="39.7" cy="-0.7" r="1.6" fill="#FFFFFF" stroke="#C9BBA8" stroke-width=".6"/><circle cx="49.7" cy="6.7" r="1.6" fill="#FFFFFF" stroke="#C9BBA8" stroke-width=".6"/><circle cx="44.7" cy="3.0" r="1.0" fill="#C9BBA8"/><circle cx="36.4" cy="2.3" r="1.6" fill="#FFFFFF" stroke="#C9BBA8" stroke-width=".6"/><circle cx="42.9" cy="12.9" r="1.6" fill="#FFFFFF" stroke="#C9BBA8" stroke-width=".6"/><ellipse cx="39.7" cy="7.6" rx="3.6" ry="2.0" transform="rotate(149 39.7 7.6)" fill="#E6DCCF" stroke="#C9BBA8" stroke-width=".6"/><circle cx="32.0" cy="4.0" r="1.6" fill="#FFFFFF" stroke="#C9BBA8" stroke-width=".6"/><circle cx="34.7" cy="16.2" r="1.6" fill="#FFFFFF" stroke="#C9BBA8" stroke-width=".6"/><circle cx="33.3" cy="10.1" r="1.0" fill="#C9BBA8"/><circle cx="26.4" cy="4.5" r="1.6" fill="#FFFFFF" stroke="#C9BBA8" stroke-width=".6"/><circle cx="26.1" cy="17.0" r="1.6" fill="#FFFFFF" stroke="#C9BBA8" stroke-width=".6"/><ellipse cx="26.2" cy="10.8" rx="3.6" ry="2.0" transform="rotate(-179 26.2 10.8)" fill="#E6DCCF" stroke="#C9BBA8" stroke-width=".6"/><circle cx="20.2" cy="3.7" r="1.6" fill="#FFFFFF" stroke="#C9BBA8" stroke-width=".6"/><circle cx="17.5" cy="15.9" r="1.6" fill="#FFFFFF" stroke="#C9BBA8" stroke-width=".6"/><circle cx="18.9" cy="9.8" r="1.0" fill="#C9BBA8"/><circle cx="14.1" cy="1.8" r="1.6" fill="#FFFFFF" stroke="#C9BBA8" stroke-width=".6"/><circle cx="9.3" cy="13.3" r="1.6" fill="#FFFFFF" stroke="#C9BBA8" stroke-width=".6"/><ellipse cx="11.7" cy="7.5" rx="3.6" ry="2.0" transform="rotate(-157 11.7 7.5)" fill="#E6DCCF" stroke="#C9BBA8" stroke-width=".6"/><circle cx="8.6" cy="-1.1" r="1.6" fill="#FFFFFF" stroke="#C9BBA8" stroke-width=".6"/><circle cx="1.9" cy="9.4" r="1.6" fill="#FFFFFF" stroke="#C9BBA8" stroke-width=".6"/><circle cx="5.3" cy="4.2" r="1.0" fill="#C9BBA8"/><circle cx="4.4" cy="-4.4" r="1.6" fill="#FFFFFF" stroke="#C9BBA8" stroke-width=".6"/><circle cx="-4.4" cy="4.4" r="1.6" fill="#FFFFFF" stroke="#C9BBA8" stroke-width=".6"/><circle cx=".8" cy="2" r="7" fill="#3E2A20" fill-opacity=".16"/><circle r="7" fill="url(#pearl)"/></g>
<g transform="translate(146.0 52.0) rotate(18.0) scale(0.620)" filter="url(#lift)"><g transform="scale(-.72 1)"><path d="M0 0C4-18 30-32 36-16 40-4 20 4 0 2Z" fill="url(#paperW)" stroke="#D3C9BC" stroke-width=".9"/><path d="M0 2C14 6 28 14 22 26 16 34 4 22 0 4Z" fill="url(#paperW)" stroke="#D3C9BC" stroke-width=".9"/></g><path d="M0 0C4-18 30-32 36-16 40-4 20 4 0 2Z" fill="url(#paperW)" stroke="#D3C9BC" stroke-width=".9"/><path d="M0 2C14 6 28 14 22 26 16 34 4 22 0 4Z" fill="url(#paperW)" stroke="#D3C9BC" stroke-width=".9"/><path d="M3-1C12-10 24-18 32-16M3 4C10 9 16 14 19 22" stroke="#8E7F72" stroke-opacity=".12" stroke-width="1"/><ellipse cx="0" cy="4" rx="1.6" ry="10" fill="#EAE4DC"/><path d="M0-5C-2-12-5-15-8-16M0-5C2-12 5-15 8-16" stroke="#D9D1C6" stroke-width=".8"/></g>
<circle cx="16.4" cy="176.8" r="3" fill="#3E2A20" fill-opacity=".16"/><circle cx="16.0" cy="176.0" r="3" fill="url(#pearl)"/>
<circle cx="23.4" cy="173.8" r="3" fill="#3E2A20" fill-opacity=".16"/><circle cx="23.0" cy="173.0" r="3" fill="url(#pearl)"/>
<circle cx="30.4" cy="170.8" r="3" fill="#3E2A20" fill-opacity=".16"/><circle cx="30.0" cy="170.0" r="3" fill="url(#pearl)"/>
<circle cx="37.4" cy="167.8" r="3" fill="#3E2A20" fill-opacity=".16"/><circle cx="37.0" cy="167.0" r="3" fill="url(#pearl)"/>
<circle cx="44.4" cy="164.8" r="3" fill="#3E2A20" fill-opacity=".16"/><circle cx="44.0" cy="164.0" r="3" fill="url(#pearl)"/>
<circle cx="51.2" cy="165.2" r="3" fill="#3E2A20" fill-opacity=".16"/><circle cx="50.8" cy="164.4" r="3" fill="url(#pearl)"/>
<circle cx="58.0" cy="165.6" r="3" fill="#3E2A20" fill-opacity=".16"/><circle cx="57.6" cy="164.8" r="3" fill="url(#pearl)"/>
<circle cx="64.8" cy="166.0" r="3" fill="#3E2A20" fill-opacity=".16"/><circle cx="64.4" cy="165.2" r="3" fill="url(#pearl)"/>
<circle cx="71.6" cy="166.4" r="3" fill="#3E2A20" fill-opacity=".16"/><circle cx="71.2" cy="165.6" r="3" fill="url(#pearl)"/>
<circle cx="78.4" cy="166.8" r="3" fill="#3E2A20" fill-opacity=".16"/><circle cx="78.0" cy="166.0" r="3" fill="url(#pearl)"/>
<circle cx="84.9" cy="163.8" r="3" fill="#3E2A20" fill-opacity=".16"/><circle cx="84.5" cy="163.0" r="3" fill="url(#pearl)"/>
<circle cx="91.4" cy="160.8" r="3" fill="#3E2A20" fill-opacity=".16"/><circle cx="91.0" cy="160.0" r="3" fill="url(#pearl)"/>
<circle cx="97.9" cy="157.8" r="3" fill="#3E2A20" fill-opacity=".16"/><circle cx="97.5" cy="157.0" r="3" fill="url(#pearl)"/>
<circle cx="104.4" cy="154.8" r="3" fill="#3E2A20" fill-opacity=".16"/><circle cx="104.0" cy="154.0" r="3" fill="url(#pearl)"/>
<circle cx="150.5" cy="161.1" r="4" fill="#3E2A20" fill-opacity=".16"/><circle cx="150.0" cy="160.0" r="4" fill="url(#pearl)"/>
<path d="M30 30Q31.08 34.92 36 36Q31.08 37.08 30 42Q28.92 37.08 24 36Q28.92 34.92 30 30Z" fill="#CAA67F"/>
</svg>
