<svg xmlns="http://www.w3.org/2000/svg" viewBox="0 0 14 28" fill="none" width="14" height="28"><defs>
<filter id="lift" x="-25%" y="-25%" width="150%" height="150%"><feDropShadow dx="0" dy="2.4" stdDeviation="2.2" flood-color="#262A40" flood-opacity=".24"/></filter>
<filter id="liftS" x="-25%" y="-25%" width="150%" height="150%"><feDropShadow dx="0" dy="1.2" stdDeviation="1" flood-color="#262A40" flood-opacity=".26"/></filter>
<filter id="glow" x="-50%" y="-50%" width="200%" height="200%"><feGaussianBlur stdDeviation="2.4"/></filter>
<radialGradient id="pearl" cx=".34" cy=".3" r=".78"><stop stop-color="#FFFFFF"/><stop offset=".42" stop-color="#F3F1F6"/><stop offset=".82" stop-color="#CFCADB"/><stop offset="1" stop-color="#B2ABC2"/></radialGradient>
<linearGradient id="paperW" x1="0" y1="0" x2="1" y2="1"><stop stop-color="#FFFFFF"/><stop offset=".6" stop-color="#F1ECF4"/><stop offset="1" stop-color="#D9CDE0"/></linearGradient>
<linearGradient id="satin" x1="0" y1="0" x2="0" y2="1"><stop stop-color="#FFFFFF"/><stop offset=".45" stop-color="#F4F1F6"/><stop offset=".55" stop-color="#E7E1EC"/><stop offset="1" stop-color="#F9F7FB"/></linearGradient>
<linearGradient id="satinLilac" x1="0" y1="0" x2="1" y2="1"><stop stop-color="#F1E8F1"/><stop offset=".45" stop-color="#A88D9F"/><stop offset="1" stop-color="#7C648A"/></linearGradient>
<linearGradient id="gold" x1="0" y1="0" x2="1" y2="1"><stop stop-color="#FFFBE6"/><stop offset=".5" stop-color="#F6EDC8"/><stop offset="1" stop-color="#D8C68C"/></linearGradient>
<linearGradient id="moon" x1="0" y1="0" x2="1" y2="1"><stop stop-color="#FFFCEB"/><stop offset=".6" stop-color="#F6EDC8"/><stop offset="1" stop-color="#D8C68C"/></linearGradient>
<linearGradient id="night" x1="0" y1="0" x2="1" y2="1"><stop stop-color="#3A3956"/><stop offset=".55" stop-color="#2C3350"/><stop offset="1" stop-color="#294C4C"/></linearGradient>
<pattern id="starsNavy" width="24" height="24" patternUnits="userSpaceOnUse"><circle cx="5" cy="6" r=".9" fill="#F8F5D0"/><circle cx="17" cy="15" r=".7" fill="#BCDCC9"/><path d="M14 3l.6 1.6 1.6.6-1.6.6-.6 1.6-.6-1.6-1.6-.6 1.6-.6Z" fill="#F8F5D0"/><circle cx="7" cy="19" r=".6" fill="#E6DCE6"/></pattern>
<pattern id="ginghamLilac" width="12" height="12" patternUnits="userSpaceOnUse"><rect width="12" height="12" fill="#FAF7FB"/><rect width="6" height="12" fill="#A88D9F" fill-opacity=".34"/><rect width="12" height="6" fill="#A88D9F" fill-opacity=".34"/></pattern>
<pattern id="ginghamMint" width="12" height="12" patternUnits="userSpaceOnUse"><rect width="12" height="12" fill="#F6FAF7"/><rect width="6" height="12" fill="#9CC0A8" fill-opacity=".4"/><rect width="12" height="6" fill="#9CC0A8" fill-opacity=".4"/></pattern>
<pattern id="tapeStripe" width="9" height="9" patternUnits="userSpaceOnUse" patternTransform="rotate(45)"><rect width="4" height="9" fill="#FFFFFF" fill-opacity=".3"/></pattern>
</defs>
<path d="M0 0V28H6C6 24 12 24 12 21S6 17 6 14 12 10 12 7 6 3 6 0Z" fill="#FFFFFF" fill-opacity=".9"/><path d="M6 0C6 3 12 4 12 7S6 11 6 14 12 18 12 21 6 25 6 28" stroke="#BDB3CB" stroke-width=".8"/><circle cx="3.5" cy="7" r="1.4" stroke="#BDB3CB" stroke-width=".6"/><circle cx="3.5" cy="21" r="1.4" stroke="#BDB3CB" stroke-width=".6"/><circle cx="9" cy="14" r=".9" fill="#BDB3CB"/>
</svg>
